<?xml version="1.0" standalone="no"?>
<!DOCTYPE svg PUBLIC "-//W3C//DTD SVG 20010904//EN"
 "http://www.w3.org/TR/2001/REC-SVG-20010904/DTD/svg10.dtd">
<svg version="1.0" xmlns="http://www.w3.org/2000/svg"
 width="318.000000pt" height="300.000000pt" viewBox="0 0 318.000000 300.000000"
 preserveAspectRatio="xMidYMid meet">

<g transform="translate(0.000000,300.000000) scale(0.100000,-0.100000)"
fill="#ffffff" stroke="none">
<path d="M1389 2665 c-27 -15 -43 -40 -34 -55 3 -5 21 -14 40 -20 42 -14 45
-36 6 -45 -16 -3 -46 -21 -67 -39 -46 -39 -96 -66 -122 -66 -10 0 -27 -9 -37
-20 -10 -11 -24 -20 -30 -20 -7 0 -25 -18 -40 -40 -15 -22 -32 -40 -38 -40
-11 0 -60 -50 -55 -56 10 -9 79 25 97 47 11 14 39 34 63 44 24 10 88 41 144
68 136 66 204 73 297 30 37 -18 73 -43 86 -61 l21 -30 -62 -41 c-35 -22 -69
-45 -75 -51 -27 -23 -6 -113 41 -175 42 -55 56 -47 56 33 0 47 3 63 10 52 5
-8 10 -51 10 -95 -1 -72 -2 -78 -15 -61 -21 28 -102 33 -146 10 -19 -11 -59
-21 -89 -24 -47 -4 -55 -8 -55 -25 0 -16 15 -25 71 -45 39 -14 86 -35 106 -47
19 -13 40 -23 46 -23 7 0 26 -9 44 -20 18 -11 39 -20 47 -20 7 0 61 -26 120
-57 120 -65 189 -94 244 -100 20 -3 37 -9 37 -14 0 -5 21 -19 48 -31 41 -20
63 -23 172 -23 130 0 177 8 150 25 -8 6 -28 10 -45 10 -16 0 -39 7 -49 15 -11
8 -32 15 -46 15 -44 0 -153 41 -201 76 -26 19 -50 34 -55 34 -4 0 -16 7 -25
16 -10 9 -29 18 -41 20 -77 13 -102 21 -85 29 9 4 17 10 17 14 0 4 -27 24 -60
45 -34 22 -65 47 -71 57 -5 11 -18 19 -28 19 -27 0 -33 24 -25 102 6 65 1 92
-29 155 -15 32 -5 37 26 13 25 -20 29 -20 78 -6 74 22 156 63 163 82 14 38 6
60 -29 77 -58 28 -40 50 22 26 15 -6 55 -15 87 -19 33 -5 62 -14 66 -19 9 -16
70 -26 70 -12 0 6 7 11 15 11 8 0 15 4 15 9 0 5 -18 7 -41 4 -33 -5 -43 -2
-55 16 -22 30 -58 46 -168 74 -86 22 -102 30 -145 70 -56 52 -92 63 -186 53
l-62 -6 -27 35 c-26 33 -30 35 -89 35 -34 -1 -74 -7 -88 -15z"/>
<path d="M1947 2049 c-26 -15 -12 -28 72 -67 42 -19 87 -43 100 -53 13 -11 31
-19 41 -19 9 0 34 -15 56 -34 22 -19 60 -39 85 -46 24 -6 55 -22 69 -35 23
-22 36 -24 162 -30 84 -4 138 -3 142 3 6 10 -50 40 -113 61 -19 6 -42 18 -50
25 -9 8 -50 31 -91 51 -41 21 -98 54 -125 75 -28 20 -64 44 -80 52 -36 19
-242 31 -268 17z m81 -20 c-2 -6 -8 -10 -13 -10 -5 0 -11 4 -13 10 -2 6 4 11
13 11 9 0 15 -5 13 -11z m192 -81 c0 -13 -23 -5 -28 10 -2 7 2 10 12 6 9 -3
16 -11 16 -16z m196 -116 c-3 -2 -22 4 -43 14 -37 17 -37 18 -13 25 18 5 30 1
43 -14 10 -11 15 -22 13 -25z"/>
<path d="M1027 1890 c-25 -16 -11 -30 31 -30 20 -1 51 -7 67 -14 l30 -13 -40
-7 c-22 -4 -53 -12 -68 -18 -20 -8 -35 -8 -55 1 l-26 13 23 17 c22 17 22 41 0
41 -5 0 -39 -13 -74 -30 -35 -16 -68 -30 -72 -30 -4 0 -43 -37 -85 -82 -52
-54 -78 -89 -78 -105 0 -12 4 -23 10 -23 18 0 90 42 103 60 7 10 26 24 42 31
17 6 45 18 63 26 18 8 42 11 53 8 14 -5 28 0 43 14 20 18 35 21 156 22 127 1
141 -1 229 -30 51 -17 117 -47 146 -66 28 -19 59 -35 67 -35 9 0 21 -7 28 -15
7 -8 22 -15 34 -15 27 0 111 -27 158 -51 20 -10 50 -19 67 -19 16 0 32 -4 35
-9 6 -10 117 -44 194 -60 65 -13 119 -14 126 -2 7 10 -16 21 -44 21 -9 0 -23
7 -30 15 -7 8 -19 15 -27 15 -8 0 -46 14 -85 31 -38 17 -80 32 -91 33 -12 2
-42 11 -67 22 -65 26 -307 150 -360 184 -25 16 -66 34 -92 39 -26 6 -62 17
-80 25 -79 34 -296 57 -331 36z m321 -78 c4 -14 -34 -16 -42 -3 -6 10 13 21
28 17 6 -1 12 -8 14 -14z"/>
<path d="M1068 1614 c-3 -3 -34 -7 -68 -10 -35 -3 -75 -11 -89 -18 -14 -7 -38
-16 -53 -20 -15 -3 -48 -24 -73 -46 -25 -22 -50 -40 -55 -40 -5 0 -7 -7 -4
-15 4 -9 0 -15 -8 -15 -31 0 -50 -38 -59 -116 -6 -53 -5 -82 2 -91 6 -7 15
-56 18 -108 7 -79 11 -98 29 -114 12 -10 22 -24 22 -30 0 -6 11 -16 24 -22 15
-7 34 -34 51 -72 32 -73 114 -159 167 -176 21 -7 40 -17 43 -22 4 -5 17 -9 30
-9 14 0 49 -22 87 -53 35 -30 88 -65 118 -79 66 -30 180 -58 235 -57 22 0 73
-3 113 -7 91 -8 253 11 306 37 22 10 49 19 59 19 11 0 51 9 88 20 72 22 111
50 246 178 37 34 73 62 80 62 33 0 200 205 224 275 7 22 19 49 26 60 7 11 13
29 13 41 0 12 6 27 14 33 8 7 18 27 22 44 3 18 15 44 26 60 11 15 16 27 12 27
-3 0 -2 6 3 13 6 6 14 29 17 51 4 21 12 47 19 56 8 14 8 22 -3 35 -13 15 -15
15 -29 -3 -9 -11 -27 -22 -41 -24 -16 -2 -35 -18 -53 -45 -16 -24 -35 -43 -43
-43 -9 0 -22 -7 -30 -15 -9 -9 -37 -16 -67 -17 -90 -3 -102 -4 -120 -12 -9 -5
-26 -6 -37 -3 -10 3 -36 -1 -57 -9 -59 -21 -163 -17 -235 8 -44 15 -90 22
-153 23 -49 1 -95 3 -101 4 -6 0 -35 23 -63 50 -53 50 -117 78 -201 88 -24 3
-46 16 -71 42 -38 39 -77 51 -170 51 -22 0 -39 5 -39 10 0 10 -162 15 -172 4z
m-173 -93 c-3 -12 -15 -21 -25 -21 -10 0 -22 -4 -25 -10 -3 -5 -13 -10 -22
-10 -9 0 3 15 28 34 47 38 54 39 44 7z m-95 -51 c0 -5 -4 -10 -10 -10 -5 0
-10 5 -10 10 0 6 5 10 10 10 6 0 10 -4 10 -10z m1907 -83 c8 -14 -5 -21 -19
-9 -7 5 -26 12 -43 15 -21 3 -17 4 13 4 24 -1 46 -5 49 -10z"/>
</g>
</svg>
