<?xml version="1.0" standalone="no"?>
<!DOCTYPE svg PUBLIC "-//W3C//DTD SVG 20010904//EN"
 "http://www.w3.org/TR/2001/REC-SVG-20010904/DTD/svg10.dtd">
<svg version="1.0" xmlns="http://www.w3.org/2000/svg"
 width="291.000000pt" height="290.000000pt" viewBox="0 0 291.000000 290.000000"
 preserveAspectRatio="xMidYMid meet">

<g transform="translate(0.000000,290.000000) scale(0.100000,-0.100000)"
fill="#000000" stroke="none">
<path d="M1400 2727 c-3 -2 -66 -10 -140 -16 -134 -11 -136 -12 -245 -66 -92
-45 -124 -67 -196 -137 -47 -46 -102 -104 -122 -129 -40 -50 -108 -174 -138
-253 -11 -28 -26 -64 -34 -81 -8 -16 -24 -84 -36 -150 -25 -142 -22 -292 10
-416 22 -88 32 -109 77 -165 18 -23 43 -66 54 -96 11 -30 40 -79 65 -109 60
-72 193 -209 204 -209 4 0 29 -16 55 -35 l46 -36 0 -148 c0 -169 4 -179 81
-218 62 -31 277 -57 464 -57 198 0 424 29 483 62 69 39 72 47 72 218 l0 152
52 33 c85 55 282 261 295 309 3 13 24 62 45 108 61 133 78 219 78 410 0 186
-12 256 -67 384 -19 46 -42 100 -49 121 -26 71 -196 259 -305 337 -91 66 -192
118 -294 152 -83 28 -103 31 -270 35 -99 3 -182 3 -185 0z m375 -46 c124 -32
264 -96 330 -151 11 -9 41 -29 68 -44 26 -15 47 -32 47 -37 0 -6 24 -35 54
-65 30 -29 63 -67 72 -84 10 -16 21 -30 25 -30 14 0 69 -100 94 -172 69 -194
69 -190 69 -388 1 -199 -7 -250 -59 -367 -21 -47 -24 -51 -19 -23 3 19 16 69
29 110 57 186 55 350 -7 480 -39 83 -59 105 -133 143 -87 44 -156 43 -250 -4
-48 -24 -78 -47 -97 -74 -74 -106 -118 -175 -132 -209 -8 -20 -20 -36 -26 -36
-6 0 -38 12 -71 26 -34 14 -68 23 -77 19 -22 -8 -8 -17 76 -49 56 -22 72 -32
68 -45 -44 -157 -26 -352 45 -478 29 -49 69 -93 86 -93 8 0 16 -7 19 -15 11
-28 89 -48 166 -43 59 4 68 3 48 -6 -31 -14 -40 -20 -103 -78 -38 -35 -49 -50
-40 -59 14 -14 67 -3 83 17 7 7 16 12 20 9 4 -2 16 11 26 31 10 19 31 40 46
47 16 6 28 16 28 21 0 5 7 14 15 20 9 6 17 22 18 34 1 14 7 22 17 20 8 -1 22
2 30 7 11 7 10 1 -4 -20 -26 -40 -184 -195 -199 -195 -7 0 -32 -14 -56 -30
-25 -17 -51 -28 -58 -25 -8 2 -12 1 -8 -4 13 -21 -181 -101 -206 -85 -8 5 -9
3 -4 -6 6 -10 1 -12 -18 -8 -15 3 -24 2 -22 -2 8 -13 -37 -21 -170 -27 -84 -4
-155 -2 -200 6 -73 13 -295 85 -304 99 -8 11 -126 82 -137 82 -8 0 -58 46
-111 100 -6 6 -22 22 -35 34 -60 57 -125 144 -168 225 -11 21 -6 19 30 -12 23
-20 84 -57 135 -82 l93 -47 128 4 c121 3 133 5 189 34 76 39 153 96 185 138
14 18 41 47 61 64 19 17 50 59 68 93 37 70 18 64 -31 -10 -70 -106 -245 -251
-301 -251 -25 0 -21 29 6 39 24 10 187 159 187 172 0 4 32 52 70 106 39 54 73
109 76 123 3 14 22 66 41 117 51 136 63 194 70 343 6 163 -6 222 -75 354 -51
96 -98 146 -176 185 -62 31 -108 36 -194 21 -71 -12 -166 -61 -201 -104 -14
-16 -13 -17 17 -13 41 7 33 -5 -20 -31 -85 -39 -232 -222 -310 -382 -49 -101
-58 -130 -77 -242 -24 -148 -27 -259 -6 -343 17 -71 18 -86 6 -82 -5 1 -18 -8
-29 -20 l-19 -23 -16 43 c-29 75 -38 140 -39 254 0 160 15 235 74 377 16 39
36 92 44 118 8 26 19 50 24 53 6 4 29 34 52 68 58 86 150 180 232 238 38 27
73 49 78 49 4 0 27 9 51 20 54 25 119 39 178 40 25 0 59 5 75 10 98 34 325 34
459 1z m-499 -298 c-10 -56 -36 -133 -46 -133 -6 0 18 108 35 158 10 27 17 10
11 -25z m-308 -324 l50 -10 -11 -30 c-7 -16 -17 -27 -23 -25 -6 2 -32 8 -58
11 -25 4 -46 9 -46 10 0 15 22 55 29 55 6 0 32 -5 59 -11z m322 -14 c63 -67
-44 -190 -112 -128 -30 27 -24 88 12 123 37 36 69 38 100 5z m1027 5 c70 -25
109 -60 139 -127 43 -97 57 -169 50 -273 -5 -84 -33 -223 -35 -177 -1 24 -21
22 -21 -3 0 -11 4 -20 9 -20 13 0 -14 -104 -40 -149 -20 -36 -33 -44 -65 -40
-3 0 -11 -7 -18 -17 -12 -15 -13 -15 -12 7 1 32 -38 34 -42 2 -3 -18 -12 -23
-48 -29 -25 -3 -60 -4 -78 -1 -19 3 -39 0 -45 -6 -8 -8 -11 -6 -11 6 0 16 -8
17 -65 13 -48 -4 -68 -2 -79 9 -18 18 -36 19 -36 3 -1 -26 -31 29 -50 90 -36
115 -16 357 36 440 10 17 38 62 61 99 58 94 117 148 183 172 71 25 98 25 167
1z m-853 -30 c15 -15 10 -88 -8 -115 -57 -88 -153 -20 -112 79 8 20 25 41 38
46 24 10 67 5 82 -10z m-611 -17 c16 -9 6 -23 -10 -14 -10 5 -34 11 -53 12
-30 3 -35 1 -38 -18 -3 -23 11 -31 66 -35 17 -1 32 -6 32 -11 0 -5 -19 -6 -42
-2 -71 11 -76 14 -71 38 11 49 11 49 60 41 27 -3 51 -8 56 -11z m230 -19 c33
-6 38 -10 33 -28 -3 -11 -6 -27 -6 -34 0 -10 -13 -11 -52 -6 -29 4 -55 8 -57
10 -2 2 0 19 3 39 6 28 11 35 24 31 9 -3 34 -8 55 -12z m-148 -223 c317 -59
371 -69 438 -81 54 -10 67 -16 62 -28 -3 -8 -13 -45 -23 -81 -16 -64 -17 -65
-20 -28 -2 21 2 44 8 51 23 29 -1 44 -108 65 -59 12 -118 24 -132 26 -14 2
-90 19 -170 36 -236 52 -237 52 -269 -50 l-19 -62 21 -13 c12 -8 54 -17 92
-21 39 -4 121 -18 182 -31 132 -28 133 -28 133 -10 0 14 -35 31 -80 40 -14 2
4 2 40 0 36 -3 109 -15 163 -27 79 -17 97 -24 97 -39 0 -16 -10 -18 -72 -19
l-73 -1 50 -9 c28 -5 64 -13 80 -19 30 -10 30 -10 -5 -4 -125 20 -161 26 -215
39 -157 36 -350 77 -395 82 -40 5 -50 9 -46 22 3 9 14 52 26 96 30 112 27 108
53 102 12 -3 94 -19 182 -36z m-25 -151 c41 -10 84 -20 95 -23 12 -3 8 -5 -13
-6 -28 -1 -148 21 -190 35 -7 2 -10 9 -7 15 4 6 14 7 24 4 9 -4 50 -15 91 -25z
m472 -162 c-6 -6 -7 0 -4 19 5 21 7 23 10 9 2 -10 0 -22 -6 -28z m1028 -258
c-23 -39 -44 -70 -46 -70 -12 0 4 51 26 80 15 19 33 46 40 60 8 15 15 20 18
12 2 -7 -15 -44 -38 -82z"/>
<path d="M1138 885 c-3 -3 -30 -6 -61 -7 l-56 -2 32 -19 c18 -11 47 -28 66
-40 19 -11 31 -15 27 -9 -4 7 -3 12 3 12 5 0 14 -6 18 -14 4 -7 19 -17 33 -20
19 -6 21 -5 10 3 -11 8 -11 11 -2 11 7 0 15 -6 18 -14 3 -8 15 -16 26 -19 11
-3 17 -3 14 0 -3 3 5 14 17 24 21 17 19 20 -15 23 -7 1 -17 6 -23 12 -16 18
-101 65 -107 59z m-38 -25 c0 -5 -4 -10 -10 -10 -5 0 -10 5 -10 10 0 6 5 10
10 10 6 0 10 -4 10 -10z m66 -7 c-2 -9 -10 -17 -19 -19 -20 -3 -22 7 -5 24 17
17 27 15 24 -5z m45 -25 c8 -15 8 -18 0 -14 -6 4 -16 16 -22 28 -8 15 -8 18 0
14 6 -4 16 -16 22 -28z"/>
<path d="M1531 870 c46 -29 318 -38 327 -12 2 6 9 9 17 6 8 -3 22 -1 32 5 15
9 14 10 -12 11 -17 0 -37 -6 -44 -12 -11 -10 -14 -10 -18 0 -3 6 -16 12 -30
12 -20 0 -23 -3 -14 -13 8 -10 7 -14 -4 -14 -7 0 -13 5 -12 11 1 6 -19 12 -47
14 -41 3 -48 1 -38 -11 9 -11 8 -14 -3 -14 -8 0 -15 6 -15 14 0 7 -5 13 -11
13 -5 0 -7 -4 -4 -10 8 -14 -1 -13 -25 3 -17 10 -22 9 -30 -3 -5 -8 -10 -10
-10 -3 0 6 -16 11 -36 11 -25 0 -32 -3 -23 -8z"/>
<path d="M1938 873 c7 -3 16 -2 19 1 4 3 -2 6 -13 5 -11 0 -14 -3 -6 -6z"/>
<path d="M2025 871 c-6 -11 9 -23 19 -14 9 9 7 23 -3 23 -6 0 -12 -4 -16 -9z"/>
<path d="M1298 778 c-19 -19 -16 -22 16 -18 12 1 16 -2 11 -10 -5 -8 -3 -11 5
-8 15 5 27 30 13 27 -19 -3 -27 2 -15 10 11 7 11 9 0 13 -7 2 -21 -4 -30 -14z"/>
<path d="M1357 760 c-3 -13 0 -23 9 -27 21 -8 32 6 14 17 -12 8 -10 10 8 10
13 0 20 -4 17 -10 -4 -6 1 -7 11 -3 13 5 16 2 12 -9 -5 -13 6 -15 74 -15 88
-1 93 11 8 21 -38 5 -50 3 -40 -4 11 -7 11 -10 2 -10 -7 0 -15 6 -18 14 -3 8
-17 16 -32 19 -15 3 -34 8 -43 12 -11 4 -18 -1 -22 -15z"/>
<path d="M1693 733 c9 -2 23 -2 30 0 6 3 -1 5 -18 5 -16 0 -22 -2 -12 -5z"/>
<path d="M903 2044 c-7 -19 -5 -21 43 -29 33 -5 43 -3 47 9 4 9 3 16 -1 16 -4
0 -24 4 -45 9 -30 7 -40 6 -44 -5z"/>
<path d="M2310 1905 c0 -8 5 -15 10 -15 6 0 10 7 10 15 0 8 -4 15 -10 15 -5 0
-10 -7 -10 -15z"/>
<path d="M2090 1870 c0 -13 5 -20 13 -17 6 2 12 10 12 17 0 7 -6 15 -12 18 -8
2 -13 -5 -13 -18z"/>
<path d="M2204 1856 c-4 -10 -2 -22 4 -28 8 -8 13 -7 18 6 4 10 2 22 -4 28 -8
8 -13 7 -18 -6z"/>
<path d="M2284 1839 c-3 -6 -1 -16 5 -22 9 -9 14 -8 21 3 9 15 4 30 -10 30 -5
0 -12 -5 -16 -11z"/>
<path d="M2116 1823 c-11 -11 -6 -23 9 -23 8 0 15 4 15 9 0 13 -16 22 -24 14z"/>
<path d="M2365 1800 c-4 -6 -3 -16 3 -22 6 -6 12 -6 17 2 4 6 3 16 -3 22 -6 6
-12 6 -17 -2z"/>
<path d="M2205 1790 c-8 -13 4 -32 16 -25 12 8 12 35 0 35 -6 0 -13 -4 -16
-10z"/>
<path d="M2264 1779 c-3 -6 -2 -15 4 -21 13 -13 32 -2 32 18 0 16 -26 19 -36
3z"/>
<path d="M2134 1759 c-3 -6 -2 -15 4 -21 13 -13 32 -2 32 18 0 16 -26 19 -36
3z"/>
<path d="M2023 1744 c-8 -21 13 -42 28 -27 13 13 5 43 -11 43 -6 0 -13 -7 -17
-16z"/>
<path d="M2460 1740 c0 -11 5 -20 10 -20 6 0 10 9 10 20 0 11 -4 20 -10 20 -5
0 -10 -9 -10 -20z"/>
<path d="M2330 1729 c0 -18 2 -19 15 -9 15 12 12 30 -6 30 -5 0 -9 -10 -9 -21z"/>
<path d="M2215 1717 c-4 -10 -5 -21 -1 -24 10 -10 18 4 13 24 -4 17 -4 17 -12
0z"/>
<path d="M2244 1709 c-10 -17 13 -36 27 -22 12 12 4 33 -11 33 -5 0 -12 -5
-16 -11z"/>
<path d="M2420 1700 c0 -13 5 -20 13 -17 6 2 12 10 12 17 0 7 -6 15 -12 18 -8
2 -13 -5 -13 -18z"/>
<path d="M2074 1699 c-3 -6 -2 -15 4 -21 13 -13 32 -2 32 18 0 16 -26 19 -36
3z"/>
<path d="M2164 1695 c-3 -8 -3 -19 1 -25 10 -16 35 7 28 26 -7 18 -22 18 -29
-1z"/>
<path d="M2283 1684 c-9 -23 11 -38 26 -20 13 16 7 36 -10 36 -5 0 -12 -7 -16
-16z"/>
<path d="M2367 1683 c-13 -12 -7 -33 8 -33 8 0 15 9 15 20 0 20 -11 26 -23 13z"/>
<path d="M1920 1665 c-9 -11 -10 -19 -2 -27 14 -14 32 -1 32 23 0 23 -13 25
-30 4z"/>
<path d="M2115 1660 c-8 -13 14 -42 26 -34 5 3 9 14 9 25 0 20 -24 26 -35 9z"/>
<path d="M1985 1647 c-4 -10 -5 -21 -1 -24 10 -10 18 4 13 24 -4 17 -4 17 -12
0z"/>
<path d="M2210 1641 c-36 -10 -32 -36 5 -36 23 1 31 6 33 23 4 23 1 24 -38 13z"/>
<path d="M2310 1630 c0 -11 7 -20 15 -20 8 0 15 9 15 20 0 11 -7 20 -15 20 -8
0 -15 -9 -15 -20z"/>
<path d="M2033 1624 c-8 -21 13 -42 28 -27 13 13 5 43 -11 43 -6 0 -13 -7 -17
-16z"/>
<path d="M2094 1605 c-3 -8 -3 -19 1 -25 3 -5 1 -10 -5 -10 -6 0 -10 -10 -8
-22 4 -31 22 -29 26 2 2 14 7 29 12 34 10 10 2 36 -11 36 -5 0 -12 -7 -15 -15z"/>
<path d="M2259 1608 c-1 -2 -3 -20 -4 -40 -4 -43 9 -58 25 -29 7 14 7 22 -1
27 -8 5 -8 9 1 14 13 8 5 30 -11 30 -5 0 -9 -1 -10 -2z"/>
<path d="M2430 1590 c0 -11 5 -20 10 -20 6 0 10 9 10 20 0 11 -4 20 -10 20 -5
0 -10 -9 -10 -20z"/>
<path d="M2157 1593 c-12 -11 -8 -23 8 -23 8 0 15 7 15 15 0 16 -12 20 -23 8z"/>
<path d="M2377 1593 c-12 -11 -8 -23 8 -23 8 0 15 7 15 15 0 16 -12 20 -23 8z"/>
<path d="M2317 1584 c-8 -8 1 -24 14 -24 5 0 9 7 9 15 0 15 -12 20 -23 9z"/>
<path d="M2205 1570 c-8 -13 4 -32 16 -25 12 8 12 35 0 35 -6 0 -13 -4 -16
-10z"/>
<path d="M2014 1545 c-3 -8 -3 -19 0 -24 10 -16 36 -1 36 20 0 22 -28 26 -36
4z"/>
<path d="M1953 1534 c-7 -18 11 -39 26 -30 17 11 13 46 -4 46 -9 0 -18 -7 -22
-16z"/>
<path d="M2146 1535 c-7 -20 23 -33 34 -14 5 7 6 17 4 21 -9 13 -32 9 -38 -7z"/>
<path d="M2303 1534 c-8 -21 13 -42 28 -27 13 13 5 43 -11 43 -6 0 -13 -7 -17
-16z"/>
<path d="M2226 1523 c-4 -4 -15 -8 -24 -8 -10 0 -18 -9 -20 -22 -2 -16 2 -23
12 -23 9 0 16 4 16 10 0 5 7 7 15 4 9 -4 18 1 21 11 7 18 -8 40 -20 28z"/>
<path d="M2353 1514 c-9 -23 11 -38 26 -20 13 16 7 36 -10 36 -5 0 -12 -7 -16
-16z"/>
<path d="M2090 1489 c0 -24 23 -21 28 4 2 10 -3 17 -12 17 -10 0 -16 -9 -16
-21z"/>
<path d="M2406 1494 c-9 -24 12 -44 24 -24 5 8 8 19 7 24 -6 17 -24 17 -31 0z"/>
<path d="M2280 1484 c-9 -10 -10 -18 -2 -26 12 -12 32 -2 32 17 0 21 -16 26
-30 9z"/>
<path d="M2030 1465 c-10 -12 -10 -19 -2 -27 15 -15 43 8 35 28 -7 18 -17 18
-33 -1z"/>
<path d="M2110 1450 c0 -15 5 -20 18 -18 9 2 17 10 17 18 0 8 -8 16 -17 18
-13 2 -18 -3 -18 -18z"/>
<path d="M2235 1450 c-4 -6 -10 -8 -15 -5 -14 9 -30 -29 -19 -46 8 -12 11 -11
20 4 6 9 14 15 18 12 12 -7 34 22 26 35 -8 13 -22 13 -30 0z"/>
<path d="M2150 1430 c-9 -16 -8 -22 6 -27 16 -6 36 14 31 31 -6 19 -26 17 -37
-4z"/>
<path d="M2313 1434 c-9 -25 13 -40 26 -16 10 19 6 32 -11 32 -5 0 -11 -7 -15
-16z"/>
<path d="M1974 1425 c-7 -17 4 -37 17 -30 12 8 12 45 -1 45 -6 0 -13 -7 -16
-15z"/>
<path d="M2064 1405 c-4 -8 -3 -23 0 -32 6 -15 8 -15 23 -1 16 17 12 48 -7 48
-6 0 -13 -7 -16 -15z"/>
<path d="M1912 1398 c-14 -14 -16 -35 -3 -42 18 -11 41 6 41 30 0 26 -18 32
-38 12z"/>
<path d="M2350 1395 c-7 -8 -9 -22 -6 -31 5 -13 9 -14 21 -4 17 14 20 36 6 44
-5 3 -14 -1 -21 -9z"/>
<path d="M2250 1380 c-9 -16 -8 -22 5 -26 21 -8 39 10 32 30 -9 22 -24 20 -37
-4z"/>
<path d="M2122 1368 c-19 -19 -14 -28 14 -28 18 0 25 5 22 17 -4 21 -21 26
-36 11z"/>
<path d="M2197 1364 c-14 -14 -7 -35 11 -32 9 2 17 10 17 17 0 16 -18 25 -28
15z"/>
<path d="M2011 1351 c-16 -10 -6 -31 14 -31 14 0 27 24 18 34 -8 8 -15 7 -32
-3z"/>
<path d="M2264 1325 c-7 -18 3 -35 21 -35 12 0 25 21 25 41 0 15 -40 10 -46
-6z"/>
<path d="M2090 1305 c-13 -16 -7 -45 9 -45 14 0 29 32 24 48 -6 16 -18 15 -33
-3z"/>
<path d="M2187 1303 c-4 -3 -7 -17 -7 -30 0 -35 34 -26 38 10 3 26 -14 37 -31
20z"/>
<path d="M1017 1960 c-6 -23 -4 -25 46 -34 34 -6 37 -5 37 17 0 19 -7 26 -31
31 -45 9 -46 8 -52 -14z"/>
</g>
</svg>
