<?xml version="1.0" standalone="no"?>
<!DOCTYPE svg PUBLIC "-//W3C//DTD SVG 20010904//EN"
 "http://www.w3.org/TR/2001/REC-SVG-20010904/DTD/svg10.dtd">
<svg version="1.0" xmlns="http://www.w3.org/2000/svg"
 width="308.000000pt" height="314.000000pt" viewBox="0 0 308.000000 314.000000"
 preserveAspectRatio="xMidYMid meet">

<g transform="translate(0.000000,314.000000) scale(0.100000,-0.100000)"
fill="#000000" stroke="none">
<path d="M1148 2905 c-4 -5 -189 -11 -410 -14 l-403 -6 -8 -470 c-12 -708 -13
-922 -3 -1487 9 -512 9 -518 30 -524 28 -9 2405 -9 2432 0 21 7 22 11 29 349
10 474 10 1374 -1 1787 l-9 345 -305 7 c-602 13 -1345 20 -1352 13z m1293 -31
l346 -6 8 -342 c10 -438 10 -1314 0 -1752 l-8 -342 -341 -7 c-433 -9 -1253 -9
-1727 0 l-367 7 -7 392 c-10 505 -10 1159 0 1654 l7 392 312 1 c171 1 365 5
431 9 122 8 717 5 1346 -6z"/>
<path d="M870 2780 c-41 -4 -153 -8 -247 -9 l-173 -1 0 -211 0 -211 23 5 c12
3 83 28 157 55 206 76 519 172 560 172 14 0 68 13 121 30 52 16 209 59 349 94
140 36 269 70 285 75 36 11 -959 12 -1075 1z m927 -16 c-4 -4 -50 -18 -104
-31 -193 -48 -220 -55 -407 -109 -105 -30 -201 -54 -214 -54 -14 0 -93 -22
-176 -49 -83 -28 -167 -54 -186 -59 -30 -9 -173 -62 -234 -87 -17 -7 -18 -5
-13 16 4 13 7 99 7 192 l0 167 163 1 c89 1 207 5 262 9 126 9 911 12 902 4z"/>
<path d="M2274 2769 c2 -8 29 -86 59 -174 31 -88 72 -216 92 -285 21 -69 46
-150 55 -180 10 -30 23 -86 30 -124 6 -37 17 -87 25 -110 19 -57 75 -268 129
-481 l45 -180 2 175 c4 375 -3 929 -12 1010 -5 47 -9 145 -9 218 l0 132 -127
0 c-71 0 -165 3 -211 7 -68 5 -82 4 -78 -8z m263 -19 l132 0 5 -152 c9 -236
16 -1185 9 -1168 -4 8 -32 114 -64 235 -31 121 -68 258 -82 305 -14 47 -30
112 -36 145 -5 33 -19 89 -31 125 -11 36 -37 117 -57 180 -29 95 -88 269 -111
329 -4 12 5 13 49 8 30 -4 113 -7 186 -7z"/>
<path d="M2045 2690 c-66 -16 -136 -33 -155 -38 -155 -44 -309 -82 -330 -82
-14 0 -63 -12 -110 -26 -47 -14 -134 -39 -195 -56 -60 -17 -168 -48 -240 -70
-71 -22 -166 -49 -210 -60 -94 -23 -287 -86 -297 -96 -4 -4 0 -36 8 -72 8 -36
25 -112 38 -170 13 -58 40 -166 61 -240 44 -161 65 -247 65 -276 0 -12 14 -66
30 -120 17 -55 42 -137 56 -184 14 -47 47 -155 74 -240 27 -85 54 -177 60
-205 18 -77 51 -175 59 -175 4 0 49 9 101 21 52 12 122 27 156 34 33 7 135 34
226 59 91 25 194 50 229 55 65 11 274 70 584 167 94 29 186 55 205 59 60 11
169 45 174 54 7 11 -25 162 -64 306 -17 61 -39 153 -51 205 -33 153 -57 247
-95 380 -20 69 -47 163 -61 210 -13 47 -37 126 -53 175 -16 50 -32 110 -35
135 -9 64 -86 280 -99 279 -6 -1 -65 -14 -131 -29z m173 -122 c23 -68 46 -145
52 -173 6 -27 13 -58 16 -68 5 -16 3 -17 -13 -8 -11 5 -57 15 -103 20 -93 12
-109 6 -111 -38 -1 -14 -5 -37 -10 -51 -6 -16 -7 7 -4 66 4 70 1 95 -9 103 -9
8 -48 11 -107 9 l-94 -3 -5 -90 c-5 -82 -6 -88 -18 -62 -6 16 -12 32 -12 36 0
5 -7 14 -15 21 -13 11 -30 10 -93 -6 -75 -19 -119 -45 -107 -64 12 -19 -6 -9
-57 31 -55 43 -119 79 -140 79 -8 0 -26 -19 -41 -42 l-27 -42 0 36 c0 19 -6
40 -13 47 -8 6 -75 12 -168 13 l-154 3 100 32 c55 18 141 44 190 57 50 13 148
40 218 60 71 20 159 41 195 46 37 5 99 19 137 30 114 34 168 49 195 54 14 3
39 9 55 15 17 5 46 10 66 10 l36 1 41 -122z m-188 -178 c12 -8 13 -13 3 -30
-9 -14 -13 -74 -12 -212 1 -209 1 -209 45 27 16 83 29 152 30 153 5 9 168 -38
182 -51 13 -13 12 -18 -2 -44 -15 -28 -106 -310 -106 -331 0 -6 22 -12 53 -14
l52 -3 0 -85 0 -85 -122 0 c-118 0 -123 -1 -117 -20 13 -45 161 -230 209 -261
13 -8 31 -26 39 -39 14 -21 14 -27 1 -52 -8 -15 -15 -31 -15 -36 0 -6 -40 -73
-58 -97 -6 -9 -162 165 -168 188 -15 56 -24 11 -24 -118 l0 -140 -85 0 -84 0
-3 138 c-3 135 -3 137 -19 102 -15 -31 -73 -102 -137 -169 -28 -28 -32 -24
-66 54 l-25 60 -1 -57 0 -57 58 -40 c32 -21 76 -44 97 -50 25 -7 144 -11 308
-11 l268 0 -7 -47 c-4 -26 -10 -59 -14 -73 l-6 -25 -305 0 c-224 0 -314 3
-341 13 -20 7 -57 35 -82 62 -26 28 -49 50 -53 50 -3 0 -40 -32 -81 -72 l-75
-71 -23 26 -23 27 -3 -43 -3 -42 -85 0 -85 0 -3 28 c-3 25 -6 27 -53 27 l-49
0 0 -35 0 -35 -80 0 c-74 0 -80 2 -85 22 -3 13 -4 138 -3 278 l3 255 223 3
222 2 0 -166 0 -166 40 36 c22 20 47 36 55 36 13 0 15 22 15 135 l0 135 -55 0
-55 0 0 85 0 85 140 0 140 0 0 -131 0 -131 40 35 c58 49 169 213 183 269 l7
27 -102 3 -103 3 -3 88 -3 87 116 0 115 0 0 26 c0 21 -4 25 -17 19 -24 -9
-135 -35 -150 -35 -8 0 -13 14 -13 38 0 56 -17 150 -44 244 -14 45 -23 84 -21
86 5 6 157 43 160 40 15 -17 57 -180 65 -251 6 -50 13 -93 15 -96 3 -2 5 95 5
217 l0 222 83 0 c45 0 89 -5 97 -10z m-1148 -132 l3 -93 219 -2 c120 -1 221
-4 224 -7 3 -4 -106 -6 -242 -6 -151 0 -255 -4 -267 -10 -17 -9 -19 -22 -19
-100 0 -78 2 -91 19 -100 12 -6 113 -11 243 -12 l223 -2 -200 -6 -200 -5 -3
-94 c-2 -69 1 -97 10 -103 18 -11 390 -10 408 2 8 5 17 31 20 61 l5 52 75 -77
c41 -42 77 -81 78 -86 2 -6 -29 -10 -75 -10 -68 0 -80 3 -91 20 -12 20 -21 20
-220 18 l-207 -3 0 -100 c0 -93 -2 -101 -22 -113 -23 -12 -23 -15 -23 -225 -1
-248 -1 -248 -76 18 -76 267 -94 338 -94 359 0 19 -14 74 -81 326 -19 70 -59
261 -59 280 0 17 267 109 317 110 l32 0 3 -92z m408 12 l0 -80 -195 0 -195 0
0 80 0 80 195 0 195 0 0 -80z m153 48 c170 -124 183 -138 158 -180 -37 -61
-76 -118 -82 -118 -4 0 -23 20 -43 45 -21 25 -43 45 -49 45 -7 0 -36 23 -65
50 l-52 51 25 39 c14 22 25 44 25 50 0 17 20 50 29 50 5 0 29 -15 54 -32z
m877 -111 c0 -7 12 -48 26 -92 14 -44 34 -111 44 -150 10 -38 34 -128 54 -200
19 -71 39 -141 44 -155 5 -14 13 -50 17 -80 6 -50 66 -296 101 -414 8 -27 14
-55 14 -61 0 -15 -168 -74 -230 -82 -57 -7 -57 -8 -36 79 20 88 21 88 -159 88
l-155 0 0 97 0 96 74 -71 c96 -93 119 -94 155 -8 12 26 30 59 41 73 11 14 20
32 20 40 0 8 -37 53 -82 99 -45 46 -86 92 -92 101 -5 10 -27 39 -49 66 l-39
47 100 0 c129 0 132 2 132 119 0 99 -7 111 -61 111 l-37 0 30 98 c17 53 34
119 39 145 4 27 13 55 20 63 12 15 29 10 29 -9z m-990 -167 l0 -80 -247 2
-248 3 -3 78 -3 77 251 0 250 0 0 -80z m120 6 c30 -31 62 -56 71 -56 20 0 55
44 70 90 6 16 14 30 19 30 8 0 30 -122 30 -168 0 -54 -32 -48 -127 24 -47 36
-101 73 -119 82 -27 12 -34 22 -34 44 0 24 3 27 18 19 9 -5 42 -35 72 -65z
m-30 -47 c19 -12 58 -41 85 -64 28 -23 58 -45 68 -48 42 -15 35 -58 -23 -139
l-41 -57 -96 95 c-54 52 -100 94 -105 94 -4 0 9 32 29 70 20 39 39 70 42 70 3
0 22 -10 41 -21z m-132 -181 l-3 -73 -192 -3 -193 -2 0 75 0 75 195 0 196 0
-3 -72z m325 -130 c7 -4 51 -8 99 -8 l87 0 -44 -67 c-24 -38 -61 -92 -82 -122
l-38 -53 -5 108 -5 109 -47 5 -48 5 33 50 32 49 3 -34 c2 -19 9 -38 15 -42z
m-323 -93 l0 -75 -195 0 -195 0 0 75 0 75 195 0 195 0 0 -75z m108 -271 c-3
-98 -5 -108 -25 -122 l-23 -14 0 121 0 121 25 0 26 0 -3 -106z m432 -93 c0
-44 -5 -83 -10 -86 -10 -6 -120 21 -120 30 0 2 25 30 55 61 30 32 55 62 55 66
0 4 5 8 10 8 6 0 10 -33 10 -79z m-270 -216 c20 -19 64 -45 103 -60 65 -24 75
-25 297 -25 127 0 230 -3 230 -7 0 -7 -65 -29 -205 -67 -27 -8 -72 -21 -100
-29 -188 -57 -266 -78 -310 -83 -27 -3 -97 -19 -155 -34 -168 -47 -341 -87
-400 -95 l-55 -7 -29 84 c-16 46 -32 104 -36 131 l-6 47 76 0 c84 0 100 8 100
52 0 24 4 28 29 28 26 0 30 -4 33 -32 l3 -33 88 -3 c97 -3 123 7 181 67 17 17
35 31 40 31 6 0 24 16 39 35 15 19 31 35 35 35 3 0 22 -16 42 -35z"/>
<path d="M2020 1915 c0 -24 2 -25 68 -24 l67 0 -65 24 c-36 14 -66 25 -67 25
-2 0 -3 -11 -3 -25z"/>
<path d="M1040 1215 l0 -95 50 0 50 0 0 95 0 95 -50 0 -50 0 0 -95z m90 0 c0
-54 0 -55 -30 -55 -30 0 -30 1 -30 55 0 54 0 55 30 55 30 0 30 -1 30 -55z"/>
<path d="M440 1614 c0 -220 3 -557 7 -747 l6 -347 214 0 c117 0 213 2 213 4 0
2 -12 30 -26 62 -32 71 -156 447 -173 524 -17 74 -34 136 -70 255 -17 55 -39
138 -51 185 -11 47 -42 171 -70 275 l-49 190 -1 -401z m43 151 c38 -150 83
-314 129 -470 22 -77 47 -169 56 -205 25 -108 156 -506 178 -541 5 -9 -2 -10
-26 -6 -18 4 -104 7 -191 7 l-158 0 -5 193 c-9 309 -18 1132 -13 1127 3 -3 17
-50 30 -105z"/>
<path d="M2570 905 c-172 -64 -426 -143 -511 -160 -41 -7 -95 -20 -120 -28
-137 -45 -394 -114 -654 -176 l-70 -17 100 -8 c55 -4 387 -4 738 0 l637 7 1
141 c0 78 4 174 8 214 4 48 3 72 -4 71 -5 -1 -62 -21 -125 -44z m102 -172 l-5
-183 -131 0 c-72 0 -160 -5 -195 -10 -95 -13 -981 -25 -981 -13 0 5 39 20 88
32 48 12 112 29 142 38 30 9 96 26 145 38 50 13 149 41 220 63 72 23 157 45
190 51 33 5 166 45 295 88 129 44 236 79 236 79 1 -1 -1 -83 -4 -183z"/>
</g>
</svg>
