<?xml version="1.0" standalone="no"?>
<!DOCTYPE svg PUBLIC "-//W3C//DTD SVG 20010904//EN"
 "http://www.w3.org/TR/2001/REC-SVG-20010904/DTD/svg10.dtd">
<svg version="1.0" xmlns="http://www.w3.org/2000/svg"
 width="323.000000pt" height="336.000000pt" viewBox="0 0 323.000000 336.000000"
 preserveAspectRatio="xMidYMid meet">

<g transform="translate(0.000000,336.000000) scale(0.100000,-0.100000)"
fill="#000000" stroke="none">
<path d="M1144 2861 c-49 -23 -54 -33 -54 -122 l0 -69 -50 -31 c-27 -17 -53
-36 -57 -42 -5 -7 -59 -59 -120 -116 -62 -57 -113 -108 -113 -114 0 -6 10 -1
23 11 39 37 76 19 41 -19 -18 -20 -18 -20 7 -14 25 6 26 4 32 -46 7 -60 4 -68
-23 -51 -11 7 -26 12 -34 12 -8 0 -24 12 -35 28 -12 15 -18 19 -15 10 3 -9 1
-24 -4 -33 -8 -15 -12 -12 -30 16 -11 19 -30 44 -42 57 -12 12 -29 46 -39 75
-21 61 -53 85 -129 94 -49 5 -51 5 -95 -41 -76 -78 -98 -128 -100 -223 -1 -74
2 -85 28 -122 15 -23 48 -60 74 -82 25 -23 66 -60 90 -83 24 -22 62 -50 85
-61 34 -16 41 -24 38 -45 -1 -14 -7 -69 -12 -123 -5 -55 -11 -111 -15 -125 -3
-15 4 -81 15 -147 11 -66 20 -140 20 -165 0 -119 46 -267 90 -290 11 -6 31
-22 46 -35 15 -14 44 -30 66 -37 21 -6 38 -15 38 -19 0 -4 -20 -15 -44 -25
-24 -10 -42 -22 -40 -26 7 -10 3 -10 -35 3 -17 6 -31 15 -31 20 0 6 8 5 19 -1
30 -15 39 -11 11 5 -14 8 -34 14 -45 14 -11 0 -14 -3 -7 -6 29 -12 8 -22 -36
-16 -56 6 -92 -8 -92 -38 0 -25 45 -48 62 -31 9 9 5 12 -16 12 -23 0 -27 4
-24 22 2 13 11 24 20 26 24 5 100 -17 93 -27 -8 -14 21 -21 34 -8 8 8 11 8 11
-1 0 -7 8 -12 18 -12 9 0 24 -5 32 -10 12 -7 11 -13 -9 -34 -35 -38 -83 -56
-170 -66 -69 -8 -87 -14 -142 -52 -34 -24 -64 -48 -66 -54 -2 -6 8 -16 22 -22
35 -16 46 -15 38 4 -3 9 -12 13 -22 9 -9 -3 1 11 22 31 39 36 65 40 34 6 -10
-10 -17 -27 -16 -38 0 -14 4 -11 14 11 9 21 24 34 51 42 35 11 36 12 9 10 -16
-1 -31 1 -32 6 -2 4 0 7 3 6 4 0 10 5 14 11 4 6 31 14 61 17 30 3 73 8 97 13
24 4 42 4 42 -2 0 -10 93 50 98 64 2 4 22 8 45 9 23 0 36 3 30 6 -19 7 -16 21
7 28 11 3 27 13 35 21 11 11 15 12 15 3 0 -7 6 -5 14 6 12 17 16 15 49 -31 20
-27 47 -72 61 -100 38 -77 110 -138 192 -163 54 -16 76 -29 106 -62 29 -31 42
-39 50 -31 12 12 -14 62 -33 62 -6 0 -35 11 -65 25 -30 14 -62 25 -71 25 -17
0 -83 38 -83 48 0 4 -14 22 -30 41 -17 18 -30 37 -30 41 0 5 -16 27 -35 51
-20 23 -40 51 -46 63 -8 17 -6 16 11 -4 11 -14 30 -35 41 -47 12 -13 38 -49
59 -82 31 -47 44 -60 72 -65 18 -3 45 -14 58 -23 14 -10 46 -28 73 -40 45 -21
47 -21 37 -3 -9 17 -7 20 12 20 17 0 13 5 -19 20 -24 10 -43 21 -43 23 0 2 23
-2 51 -9 83 -22 114 11 68 70 -25 32 -38 27 -15 -6 38 -54 5 -74 -71 -43 -38
16 -92 70 -93 93 0 17 62 15 107 -3 36 -15 36 -15 19 4 -10 11 -30 22 -45 24
-14 2 -9 3 13 1 66 -5 135 -89 115 -142 -5 -13 -17 -22 -31 -23 -16 -1 -18 -3
-6 -6 60 -16 81 75 31 135 -21 25 -42 36 -88 47 -33 8 -70 14 -83 15 -13 0
-56 14 -95 30 -81 34 -104 47 -97 54 3 2 55 10 115 16 115 12 202 42 272 96
17 13 37 24 44 24 6 0 39 -26 73 -57 67 -62 251 -162 336 -182 192 -46 237
-53 350 -49 106 4 120 6 176 36 47 24 64 39 73 63 14 40 97 167 128 196 13 13
41 58 61 100 l37 78 -1 195 c-1 217 -3 229 -70 362 -24 48 -59 126 -78 175
-34 88 -86 277 -86 314 0 11 -11 42 -25 68 -55 110 -157 185 -299 222 -88 23
-132 23 -221 -1 l-70 -18 -27 26 c-33 30 -35 52 -9 76 11 10 23 32 26 48 6 27
2 36 -38 73 -48 47 -133 95 -168 95 -11 0 -55 14 -97 32 -76 31 -80 32 -267
35 -170 3 -194 2 -231 -16z m336 -109 c52 -27 105 -51 118 -54 12 -4 22 -11
22 -17 0 -13 -6 -14 -48 -2 -25 8 -32 7 -32 -5 0 -8 -7 -14 -15 -14 -8 0 -15
8 -15 18 0 18 -9 24 -119 80 -34 18 -41 26 -30 33 20 12 15 14 119 -39z m-145
-42 c3 -5 1 -10 -4 -10 -6 0 -11 5 -11 10 0 6 2 10 4 10 3 0 8 -4 11 -10z m65
0 c0 -5 -2 -10 -4 -10 -3 0 -8 5 -11 10 -3 6 -1 10 4 10 6 0 11 -4 11 -10z
m121 -66 c27 5 79 -10 79 -23 -1 -11 -30 -45 -30 -35 0 6 -21 10 -47 10 -57
-1 -102 27 -103 62 l0 24 36 -22 c25 -16 44 -21 65 -16z m333 -109 c12 -9 20
-31 23 -62 l4 -48 -20 43 c-11 23 -25 42 -31 42 -5 0 -10 9 -10 20 0 23 8 25
34 5z m-255 -84 c11 -7 10 -13 -4 -35 -10 -15 -26 -31 -36 -36 -14 -8 -19 -5
-25 12 -4 13 -2 24 5 26 6 2 11 10 11 18 0 8 6 11 17 7 11 -4 14 -3 9 5 -8 14
3 15 23 3z m-1089 -20 c0 -5 6 -16 13 -23 33 -33 90 -177 84 -210 -3 -16 -5
-13 -6 11 -1 29 -3 32 -16 21 -12 -10 -13 -16 -4 -27 7 -7 9 -17 5 -20 -9 -9
-26 16 -26 39 0 12 -5 15 -17 11 -16 -6 -16 -5 -4 10 7 9 10 25 7 34 -6 15 -8
15 -16 3 -6 -8 -10 -24 -10 -35 0 -11 -4 -26 -9 -34 -8 -13 -12 -13 -26 -1
-15 12 -16 26 -11 81 5 61 4 67 -14 72 -24 6 -17 32 15 59 23 19 35 22 35 9z
m852 -45 c6 -8 8 -8 8 0 0 17 44 11 48 -6 4 -23 -58 -43 -92 -30 -26 9 -38 50
-15 50 5 0 7 5 3 11 -9 14 38 -10 48 -25z m541 -56 c3 -11 1 -20 -4 -20 -5 0
-9 9 -9 20 0 11 2 20 4 20 2 0 6 -9 9 -20z m-978 -75 c1 -40 -2 -45 -19 -43
-10 2 -24 11 -29 20 -14 22 6 68 30 68 15 0 18 -9 18 -45z m53 -3 c2 -19 11
-36 23 -42 27 -15 24 -33 -3 -24 -26 8 -58 41 -58 60 0 50 33 55 38 6z m742
-12 l5 -45 19 43 c11 23 22 42 25 42 3 0 17 -9 30 -19 23 -18 24 -21 13 -59
-9 -28 -23 -47 -46 -61 -39 -25 -120 -39 -130 -23 -4 7 -26 9 -59 5 -49 -5
-51 -5 -32 11 18 15 17 15 -16 0 -29 -13 -51 -15 -103 -9 -36 3 -66 11 -66 16
0 5 12 16 28 26 15 10 35 28 44 40 22 26 58 20 58 -10 0 -19 1 -20 20 -2 11
10 20 25 20 34 0 9 4 22 9 30 7 11 13 10 35 -5 30 -22 31 -29 11 -67 l-14 -28
30 22 c17 12 36 34 43 48 31 73 69 78 76 11z m582 18 c25 -18 72 -53 105 -78
32 -25 79 -58 105 -73 55 -32 81 -67 50 -67 -17 0 -55 18 -164 77 -20 11 -56
42 -79 69 -23 27 -45 51 -49 54 -12 9 -31 50 -23 50 5 0 29 -15 55 -32z
m-1864 -33 c7 -27 21 -55 30 -61 21 -15 10 -28 -16 -20 -11 4 -22 19 -26 34
-3 15 -10 44 -15 65 -14 57 9 42 27 -18z m1472 1 c-7 -7 -10 1 -9 25 0 32 1
33 10 10 6 -16 6 -28 -1 -35z m400 -61 c53 -46 163 -114 216 -135 50 -18 49
-17 68 -101 3 -14 28 -57 56 -95 42 -57 80 -123 80 -140 0 -2 -4 -4 -10 -4 -5
0 -10 5 -10 11 0 18 -32 38 -60 39 -14 0 -36 7 -49 14 -38 21 -121 -9 -140
-51 -15 -33 -13 -42 4 -19 16 20 39 12 31 -11 -6 -13 -3 -13 18 1 14 9 42 16
63 16 31 1 35 3 21 11 -24 14 -23 29 3 29 12 0 23 -8 26 -20 3 -13 14 -20 29
-20 13 0 24 -4 24 -10 0 -5 10 -10 23 -10 39 0 54 -22 71 -100 27 -120 32
-283 11 -355 -24 -83 -71 -179 -108 -218 -41 -43 -91 -124 -106 -169 -7 -20
-18 -41 -25 -47 -23 -19 -154 -60 -214 -66 -101 -11 -378 53 -464 108 -12 9
-52 27 -88 42 -36 15 -67 29 -69 31 -3 2 8 17 23 33 35 36 43 91 26 171 -12
58 -12 60 14 95 28 36 76 159 76 193 0 11 11 31 25 46 14 15 28 39 31 54 10
39 36 82 51 82 18 0 16 -8 -8 -38 -14 -19 -17 -28 -8 -31 7 -2 20 8 31 21 10
15 44 35 77 48 50 18 58 25 53 42 -4 17 -2 20 11 15 22 -8 22 2 0 19 -10 7
-39 14 -65 14 -59 0 -104 -35 -143 -113 l-27 -52 6 79 c3 43 10 84 15 90 4 6
16 34 26 61 10 28 25 58 33 68 14 16 13 20 -16 50 -48 49 -43 75 6 37 24 -20
26 -20 35 -3 6 10 33 45 62 78 29 33 62 83 75 112 12 29 28 57 36 63 7 7 20
35 30 63 23 72 22 72 58 35 17 -18 47 -47 66 -63z m-146 48 c-7 -30 -34 -94
-65 -159 -11 -23 -38 -59 -60 -80 l-40 -39 25 69 c14 37 26 70 26 71 0 2 16
22 35 45 19 23 35 46 35 52 0 11 39 68 46 68 2 0 1 -12 -2 -27z m-252 -54
l-10 -34 -1 45 c-1 31 2 41 10 33 7 -7 7 -21 1 -44z m-936 -29 c33 0 38 -16
12 -39 -30 -29 -58 -27 -58 3 0 35 -46 69 -83 62 -20 -4 -27 -2 -24 7 2 7 18
11 37 9 30 -2 32 -1 19 15 -8 10 6 1 30 -20 25 -20 55 -37 67 -37z m1544 0 c8
-5 10 -10 4 -10 -7 0 -22 9 -35 21 -19 16 -20 18 -4 10 11 -6 27 -15 35 -21z
m-613 -42 c-3 -7 -5 -2 -5 12 0 14 2 19 5 13 2 -7 2 -19 0 -25z m-468 -3 c193
16 233 7 245 -58 15 -82 -17 -131 -94 -142 -64 -9 -194 2 -237 20 -39 16 -63
60 -63 115 0 55 17 82 44 68 12 -7 50 -8 105 -3z m331 -65 c0 -5 -8 -10 -17
-10 -15 0 -16 2 -3 10 19 12 20 12 20 0z m111 -112 c-5 -13 -17 -25 -27 -27
-17 -3 -16 0 5 23 30 32 33 32 22 4z m-1045 -56 c-5 -4 -66 26 -66 33 0 3 16
-3 35 -12 19 -9 33 -18 31 -21z m50 -27 c16 -12 16 -14 3 -15 -9 0 -22 7 -29
15 -16 19 0 19 26 0z m1024 -21 c-13 -14 -15 -23 -26 -96 -4 -21 -10 -38 -15
-38 -5 0 -6 -6 -3 -13 5 -14 -31 -66 -40 -57 -2 3 4 26 15 50 11 25 26 74 34
109 7 35 19 67 27 72 18 11 23 -8 8 -27z m-230 -20 c15 -43 -1 -70 -20 -35 -6
12 -23 27 -38 32 l-27 11 25 13 c38 22 47 18 60 -21z m-210 -26 c19 -8 44 -26
55 -38 l20 -23 -28 7 c-16 4 -26 3 -23 -2 11 -17 -98 8 -117 27 -45 45 13 63
93 29z m-514 -56 c6 -4 14 -16 18 -28 5 -17 -2 -24 -38 -42 -35 -18 -58 -22
-114 -20 -61 3 -72 6 -76 23 -6 23 8 33 79 57 53 18 113 23 131 10z m289 -64
c17 -9 47 -35 68 -57 32 -35 36 -43 24 -55 -17 -17 -114 -11 -136 8 -9 7 -33
19 -54 26 -39 12 -73 59 -63 85 10 27 104 23 161 -7z m-616 -85 c-1 -72 -4
-98 -9 -78 -14 55 -10 185 6 185 2 0 3 -48 3 -107z m1138 18 c-8 -16 -12 -41
-10 -54 4 -18 -9 -50 -40 -105 -24 -44 -56 -105 -70 -135 -17 -37 -37 -63 -61
-79 -20 -13 -43 -38 -51 -55 -19 -38 -32 -41 -69 -12 -31 25 -35 54 -6 46 30
-8 24 10 -7 25 l-28 13 0 142 0 141 26 -19 c30 -21 49 -24 49 -9 0 6 6 10 13
10 42 0 118 34 161 72 26 24 58 45 69 48 13 4 24 16 27 30 4 25 4 25 8 -3 2
-15 -3 -40 -11 -56z m-1069 49 c41 -25 43 -31 34 -110 -6 -57 -10 -66 -34 -78
-16 -7 -28 -16 -28 -20 0 -10 17 -34 21 -31 2 1 14 -1 27 -5 15 -5 22 -15 22
-31 0 -29 16 -41 35 -25 8 6 23 9 35 5 13 -4 22 -1 26 9 7 18 36 21 65 6 15
-9 21 -7 25 5 8 21 31 19 62 -6 25 -19 27 -19 39 -2 11 14 17 15 31 5 9 -7 30
-17 45 -23 21 -8 26 -16 22 -30 -4 -13 -2 -19 8 -19 8 0 30 -14 48 -31 17 -16
42 -35 53 -41 12 -6 27 -20 34 -30 11 -14 21 -18 42 -13 19 4 31 2 37 -8 11
-18 41 -29 48 -17 7 12 30 8 68 -10 l27 -13 -27 -28 c-33 -33 -40 -35 -47 -11
-2 9 -4 5 -3 -9 2 -28 -18 -59 -38 -59 -7 0 -20 10 -29 23 l-17 22 6 -28 c5
-25 3 -28 -16 -25 -24 3 -31 13 -56 73 -9 22 -18 34 -20 27 -9 -25 8 -82 30
-103 l22 -22 -30 7 c-53 13 -68 37 -75 123 -6 75 -6 76 -15 38 -15 -66 -9
-127 14 -146 26 -21 17 -29 -21 -19 -43 13 -56 27 -72 79 -10 33 -15 39 -15
21 -1 -14 5 -37 13 -52 17 -33 14 -37 -25 -29 -26 5 -35 15 -56 66 -23 54 -25
68 -19 144 8 105 -1 102 -14 -4 -10 -83 -30 -118 -77 -136 -47 -18 -72 16 -32
43 17 11 22 26 25 68 l4 55 -13 -47 c-17 -58 -33 -78 -63 -78 -27 0 -28 3 -14
30 5 10 7 26 4 34 -5 13 -10 9 -24 -16 -13 -24 -25 -34 -46 -35 -16 -1 -23 0
-15 4 11 4 10 9 -7 22 -15 11 -22 33 -28 75 -5 41 -3 57 4 52 6 -4 18 6 27 24
14 27 14 30 0 30 -12 0 -15 6 -9 22 6 21 5 21 -10 9 -21 -18 -29 -9 -50 56
-16 51 -23 213 -9 226 10 10 15 9 51 -13z m1131 -64 c-7 -14 -16 -26 -21 -26
-12 0 -10 8 8 36 21 31 29 25 13 -10z m-736 2 c131 -37 290 -128 308 -176 15
-39 3 -89 -24 -98 -12 -5 -26 -7 -32 -5 -5 2 -21 5 -33 6 -32 4 -62 33 -62 60
0 13 -15 34 -39 53 -32 25 -51 32 -107 38 -38 4 -71 10 -74 13 -3 4 -18 13
-35 21 l-30 15 43 3 c35 3 40 5 29 17 -7 7 -22 15 -33 19 -10 3 -1 3 21 0 62
-8 147 -35 180 -59 43 -30 105 -57 105 -45 0 10 -101 61 -196 99 -54 21 -119
40 -169 48 -27 4 -121 -14 -170 -33 -12 -4 -17 -3 -12 2 5 5 29 17 55 26 63
23 187 21 275 -4z m707 -58 c0 -5 -5 -10 -11 -10 -5 0 -7 5 -4 10 3 6 8 10 11
10 2 0 4 -4 4 -10z m-843 -16 c-3 -3 -12 -4 -19 -1 -8 3 -5 6 6 6 11 1 17 -2
13 -5z m813 -43 c-10 -20 -30 -37 -30 -26 0 11 25 45 33 45 4 0 3 -9 -3 -19z
m7 -77 c-15 -52 -69 -146 -85 -152 -8 -2 10 41 39 97 29 55 54 100 55 98 2 -2
-2 -21 -9 -43z m-46 3 c-5 -14 -15 -28 -20 -32 -10 -6 0 33 15 57 11 18 14 1
5 -25z m-1060 -123 c18 -137 83 -256 146 -267 51 -10 103 -29 103 -38 0 -7 -7
-8 -17 -4 -10 4 -45 15 -78 26 -78 24 -146 95 -131 135 3 8 2 12 -3 9 -5 -3
-12 -1 -15 4 -6 9 -31 164 -39 241 l-5 45 14 -31 c7 -17 18 -71 25 -120z
m1027 68 c-28 -64 -53 -112 -59 -112 -4 0 4 27 18 60 15 33 30 60 35 60 6 0 8
-3 6 -8z m-82 -144 c-14 -11 -26 -26 -26 -33 0 -12 -41 -45 -57 -45 -3 0 5 12
19 28 14 15 33 39 42 54 12 17 23 25 33 21 13 -5 11 -10 -11 -25z m-96 -117
c-6 -12 -18 -21 -27 -21 -13 0 -14 2 -2 18 29 36 49 39 29 3z m-49 -45 c-6 -8
-21 -16 -32 -19 -20 -5 -20 -5 -3 14 20 23 54 28 35 5z m-55 -37 c3 -6 0 -15
-7 -20 -18 -11 -59 -12 -59 -1 0 8 36 30 52 31 4 1 10 -4 14 -10z m-431 -46
c8 -27 -10 -31 -23 -5 -11 19 -4 48 8 35 4 -4 11 -18 15 -30z m55 6 c0 -5 8
-9 17 -9 16 0 16 -2 2 -15 -24 -25 -71 7 -54 35 7 11 35 2 35 -11z m319 4 l23
-6 -23 -13 c-27 -15 -74 -17 -104 -4 -21 8 -21 8 25 23 22 8 52 8 79 0z m-115
-28 c19 -14 18 -15 -16 -15 -37 0 -59 14 -36 23 21 9 32 7 52 -8z m-74 -5 c0
-12 -27 -12 -55 0 -16 7 -13 9 18 9 20 1 37 -3 37 -9z m-280 -26 c-53 -16 -60
-17 -60 -5 0 12 25 19 70 19 l35 1 -45 -15z m40 -18 c-19 -19 -70 -32 -70 -18
0 11 43 30 70 31 13 1 13 -1 0 -13z m204 -23 c33 -20 63 -41 64 -45 2 -4 9 -8
16 -8 16 0 76 -59 76 -74 -1 -6 -12 2 -25 19 -13 16 -26 27 -29 24 -7 -6 37
-74 72 -111 14 -15 23 -31 19 -34 -3 -4 -31 4 -62 17 -40 17 -61 32 -72 54 -9
16 -27 44 -39 61 -32 41 -30 47 9 39 25 -5 19 1 -28 25 -32 17 -62 34 -65 39
-3 4 -14 13 -25 19 -19 11 -19 11 4 12 13 0 51 -17 85 -37z m-294 -3 c14 -11
32 -20 40 -21 9 0 11 -2 3 -5 -13 -6 -68 20 -78 36 -10 16 8 11 35 -10z m0
-49 c0 -8 -74 -61 -85 -61 -17 0 0 19 30 33 19 9 35 21 35 27 0 5 5 10 10 10
6 0 10 -4 10 -9z m485 -31 c3 -5 -1 -10 -9 -10 -9 0 -16 5 -16 10 0 6 4 10 9
10 6 0 13 -4 16 -10z m-15 -80 c6 -11 8 -20 6 -20 -3 0 -10 9 -16 20 -6 11 -8
20 -6 20 3 0 10 -9 16 -20z m139 -205 c0 -5 -6 -1 -14 9 -8 11 -15 24 -15 30
0 5 7 1 15 -10 8 -10 14 -23 14 -29z"/>
<path d="M2386 2041 c-4 -5 -3 -17 1 -28 9 -21 38 -31 30 -9 -4 10 1 13 19 11
23 -2 24 -1 8 16 -18 20 -49 25 -58 10z"/>
<path d="M2126 2014 c-20 -20 -21 -44 0 -44 8 0 12 -4 9 -10 -3 -5 -1 -10 4
-10 6 0 11 5 11 10 0 6 7 10 15 10 16 0 19 17 9 44 -8 20 -28 20 -48 0z"/>
<path d="M2515 2000 c-21 -5 -24 -8 -10 -10 16 -1 14 -4 -9 -12 -22 -8 -35 -8
-50 2 -21 13 -21 13 -1 -9 14 -16 26 -20 43 -16 15 4 21 2 17 -5 -3 -5 -21
-11 -38 -11 -30 -2 -30 -2 -5 -6 29 -5 98 41 98 65 0 13 -1 13 -45 2z"/>
<path d="M2068 1944 c-16 -8 -28 -17 -28 -19 0 -7 60 17 66 26 8 13 -7 10 -38
-7z"/>
<path d="M2161 1924 c-12 -27 -11 -28 4 -12 10 9 16 21 13 28 -2 7 -10 -1 -17
-16z"/>
<path d="M2037 1899 c7 -7 15 -10 18 -7 3 3 -2 9 -12 12 -14 6 -15 5 -6 -5z"/>
<path d="M2083 1883 c9 -2 23 -2 30 0 6 3 -1 5 -18 5 -16 0 -22 -2 -12 -5z"/>
<path d="M2514 1819 c-34 -10 -71 -45 -60 -56 4 -5 12 0 18 10 5 10 29 27 51
37 45 20 41 24 -9 9z"/>
<path d="M2580 1815 c0 -6 56 -35 67 -35 4 0 -5 9 -22 20 -29 19 -45 25 -45
15z"/>
<path d="M1993 1689 c-44 -28 -41 -32 7 -13 38 16 71 15 115 0 17 -7 17 -5 -4
13 -30 27 -77 27 -118 0z"/>
<path d="M1921 1638 c-14 -23 -14 -23 8 -4 22 20 25 26 13 26 -4 0 -13 -10
-21 -22z"/>
<path d="M2125 1600 c-3 -5 -1 -10 4 -10 6 0 11 5 11 10 0 6 -2 10 -4 10 -3 0
-8 -4 -11 -10z"/>
<path d="M2426 1283 c-14 -15 -5 -43 14 -43 13 0 20 7 20 19 0 19 -23 35 -34
24z"/>
<path d="M2322 1263 c-12 -22 -5 -43 14 -43 8 0 14 10 14 24 0 31 -16 42 -28
19z"/>
<path d="M2453 1159 c-17 -5 -40 -19 -50 -32 -16 -19 -26 -22 -78 -19 -67 3
-93 -9 -97 -48 -4 -36 19 -35 103 3 41 19 88 37 104 41 42 10 115 40 115 47 0
7 -38 19 -55 18 -5 0 -24 -5 -42 -10z"/>
<path d="M2602 1148 c5 -15 28 -18 29 -3 0 6 -7 12 -17 13 -10 3 -15 -1 -12
-10z"/>
<path d="M2495 1075 c-60 -67 -147 -93 -221 -65 -21 8 -29 8 -36 -2 -13 -21
-10 -27 25 -49 26 -16 45 -19 104 -17 61 3 78 8 115 34 67 47 111 144 65 144
-7 0 -30 -20 -52 -45z"/>
<path d="M2130 990 c0 -5 7 -10 15 -10 8 0 15 5 15 10 0 6 -7 10 -15 10 -8 0
-15 -4 -15 -10z"/>
<path d="M1595 2069 c-18 -7 -17 -8 6 -8 23 -1 26 -5 27 -40 1 -24 -4 -44 -14
-52 -8 -7 -22 -25 -30 -41 -14 -28 -14 -28 14 -28 39 0 63 30 69 83 8 69 -23
105 -72 86z"/>
<path d="M1310 2027 c0 -59 20 -82 92 -106 65 -22 154 -29 143 -11 -3 6 -15
10 -26 10 -20 0 -20 0 0 26 15 18 19 34 15 53 -9 37 -31 51 -79 51 -54 0 -78
-24 -69 -68 4 -20 2 -32 -4 -32 -20 0 -42 44 -42 82 0 27 -4 38 -15 38 -11 0
-15 -11 -15 -43z"/>
<path d="M564 877 c-22 -19 -26 -29 -20 -50 9 -38 24 -34 22 5 -1 28 4 35 34
50 28 15 31 18 13 18 -12 0 -34 -10 -49 -23z"/>
</g>
</svg>
