<?xml version="1.0" standalone="no"?>
<!DOCTYPE svg PUBLIC "-//W3C//DTD SVG 20010904//EN"
 "http://www.w3.org/TR/2001/REC-SVG-20010904/DTD/svg10.dtd">
<svg version="1.0" xmlns="http://www.w3.org/2000/svg"
 width="329.000000pt" height="328.000000pt" viewBox="0 0 329.000000 328.000000"
 preserveAspectRatio="xMidYMid meet">

<g transform="translate(0.000000,328.000000) scale(0.100000,-0.100000)"
fill="#000000" stroke="none">
<path d="M1590 3031 c-169 -18 -412 -105 -548 -198 -19 -12 -39 -23 -45 -23
-55 0 -368 -327 -392 -410 -4 -14 -15 -34 -25 -45 -21 -23 -72 -124 -96 -187
-66 -177 -94 -297 -94 -403 0 -43 -4 -75 -10 -75 -5 0 -10 -13 -10 -30 0 -16
5 -30 10 -30 6 0 10 -32 10 -75 0 -104 29 -231 92 -395 22 -59 47 -90 71 -90
22 0 33 10 111 98 l38 42 -35 108 c-49 147 -61 230 -54 392 5 128 22 218 59
315 31 82 94 215 119 252 16 23 29 47 29 53 0 15 245 260 260 260 6 0 32 14
56 31 69 47 218 114 324 146 90 26 106 28 285 27 178 0 196 -2 278 -27 129
-40 202 -72 293 -127 45 -28 86 -50 91 -50 14 0 263 -250 263 -264 0 -6 14
-31 31 -56 90 -133 161 -328 179 -491 27 -242 -34 -505 -161 -691 -27 -40 -49
-77 -49 -81 0 -17 -235 -256 -252 -257 -4 0 -40 -21 -79 -46 -88 -56 -170 -94
-276 -127 -128 -41 -201 -50 -362 -45 -172 6 -277 31 -431 105 -52 25 -104 45
-115 45 -23 -1 -83 -70 -107 -124 -17 -37 -16 -39 5 -62 57 -62 413 -196 521
-196 14 0 26 -4 26 -10 0 -6 57 -10 150 -10 93 0 150 4 150 10 0 6 12 10 26
10 46 0 233 50 299 79 22 10 51 22 65 26 40 12 135 62 148 78 7 7 31 22 54 32
60 27 109 65 216 169 93 90 182 195 182 214 0 6 16 34 36 63 32 48 76 134 128
250 8 19 25 76 38 125 12 49 26 91 30 92 10 5 10 462 0 462 -4 0 -16 35 -26
78 -28 121 -133 371 -169 400 -8 7 -21 27 -28 45 -18 46 -61 100 -158 200
-103 106 -206 191 -243 200 -14 4 -39 18 -55 31 -30 25 -145 86 -163 86 -6 0
-29 9 -53 19 -41 19 -135 48 -227 69 -60 15 -316 22 -410 13z m480 -70 c129
-35 113 -29 275 -106 147 -70 220 -122 344 -246 129 -128 170 -183 240 -319
163 -318 205 -608 132 -914 -35 -146 -71 -232 -185 -434 -45 -81 -210 -258
-318 -340 -126 -97 -307 -182 -498 -235 -110 -30 -124 -31 -300 -32 -193 0
-245 7 -400 56 -87 28 -259 106 -284 129 -11 11 72 120 92 120 8 0 43 -15 76
-33 118 -64 247 -94 452 -104 119 -6 313 15 409 44 78 24 280 132 326 174 23
22 47 39 53 39 15 0 176 162 176 178 0 7 12 25 26 39 48 48 133 195 174 303
26 66 50 250 50 380 0 131 -24 314 -50 380 -49 125 -158 320 -180 320 -5 0
-12 10 -15 23 -10 31 -164 186 -202 202 -18 8 -33 18 -33 24 0 21 -206 132
-320 173 -67 24 -244 47 -365 47 -112 0 -305 -23 -365 -44 -82 -29 -268 -127
-315 -166 -26 -22 -51 -39 -56 -39 -16 0 -160 -143 -176 -175 -8 -16 -26 -41
-39 -55 -24 -26 -134 -239 -160 -312 -19 -50 -54 -298 -54 -378 0 -91 36 -331
58 -389 l21 -54 -27 -27 c-15 -15 -35 -39 -45 -53 -10 -15 -24 -27 -31 -27
-19 0 -61 107 -98 250 -31 118 -32 135 -32 300 0 166 1 182 33 305 50 196 145
390 258 531 18 23 33 44 33 48 0 26 298 276 329 276 7 0 42 15 79 34 135 69
220 98 362 125 30 6 64 13 75 15 11 3 97 3 190 1 152 -3 182 -7 285 -34z"/>
<path d="M1341 2705 c-98 -24 -208 -115 -252 -209 -24 -50 -29 -74 -29 -134 0
-120 20 -169 101 -252 110 -113 122 -136 127 -239 6 -124 -12 -162 -134 -279
-97 -93 -110 -119 -75 -144 10 -7 35 -34 54 -60 l36 -47 -75 -73 c-40 -40 -97
-93 -126 -118 -29 -25 -98 -90 -154 -146 -92 -90 -106 -100 -132 -96 -24 3
-34 -1 -47 -21 -20 -31 -9 -57 39 -96 17 -14 63 -57 103 -97 101 -103 99 -103
229 23 55 54 169 165 253 247 l152 149 27 -25 c53 -50 65 -51 110 -13 22 19
45 35 51 35 5 0 16 8 23 18 28 37 80 71 132 86 64 19 97 20 185 5 60 -11 71
-17 118 -63 28 -28 65 -61 81 -74 16 -12 40 -33 53 -46 35 -34 55 -42 153 -56
72 -11 102 -11 165 -1 68 12 151 45 151 61 0 3 19 26 41 50 55 59 79 117 86
212 10 131 -25 234 -114 333 -24 27 -112 65 -253 110 -162 51 -193 63 -216 80
-38 30 -95 65 -104 65 -15 0 -118 109 -126 133 -4 12 -21 45 -38 72 -42 66
-60 117 -90 252 -28 125 -59 194 -113 254 -91 101 -241 140 -392 104z m211
-39 c25 -7 75 -33 111 -56 60 -40 68 -49 95 -114 16 -39 37 -107 47 -151 33
-157 64 -232 145 -350 15 -22 35 -52 44 -67 9 -16 21 -28 27 -28 6 0 36 -20
67 -44 32 -24 84 -57 117 -74 54 -26 280 -103 345 -116 70 -14 137 -88 182
-201 32 -78 28 -198 -9 -271 -42 -83 -86 -129 -158 -165 -60 -29 -70 -31 -147
-27 -87 4 -177 36 -222 78 -12 10 -46 42 -76 70 -89 84 -150 112 -250 118 -85
4 -87 4 -165 -37 -44 -23 -107 -64 -140 -91 -32 -28 -62 -50 -66 -50 -4 0 -30
21 -58 46 l-51 45 63 62 c34 34 113 115 175 178 l114 117 -25 38 c-31 50 -61
77 -115 104 -43 22 -43 22 -65 3 -12 -11 -73 -64 -134 -117 -62 -54 -116 -103
-120 -109 -5 -7 -28 -25 -52 -41 l-44 -28 -43 48 -44 48 85 81 c89 85 112 125
136 229 24 110 -16 229 -109 317 -79 75 -106 132 -110 232 -4 73 -2 83 29 143
32 65 48 82 130 139 74 52 199 69 291 41z m-26 -1058 c-31 -35 -83 -88 -116
-118 -33 -30 -113 -107 -179 -170 -182 -178 -340 -324 -360 -335 -10 -5 -40
-34 -67 -64 -26 -29 -50 -49 -52 -43 -4 13 177 192 250 249 27 21 51 45 54 55
3 10 11 18 17 18 11 0 77 63 369 353 127 125 176 158 84 55z m94 31 c0 -10
-367 -378 -487 -488 -32 -29 -62 -58 -68 -64 -5 -5 -32 -31 -60 -56 -27 -25
-87 -83 -133 -128 -80 -78 -104 -94 -116 -75 -5 9 117 137 182 191 22 19 77
68 121 110 44 42 112 103 150 136 38 33 72 67 75 76 3 8 36 40 74 72 37 31
107 97 157 146 87 89 105 102 105 80z m80 -74 c13 -25 10 -30 -207 -243 -122
-119 -251 -244 -288 -277 -75 -66 -118 -108 -216 -212 -81 -84 -110 -105 -126
-89 -7 6 -20 17 -29 25 -18 16 -10 24 280 294 60 56 208 198 330 314 122 117
226 213 232 213 6 0 17 -11 24 -25z m-300 -410 c0 -8 -23 -31 -50 -51 -28 -20
-57 -49 -66 -65 -8 -16 -31 -40 -52 -53 -20 -14 -67 -55 -103 -93 -85 -87
-120 -121 -195 -188 l-60 -54 -21 22 c-29 29 -61 61 -128 126 -52 50 -66 71
-47 71 17 0 92 -61 151 -120 l58 -60 153 147 c85 82 196 190 248 241 52 50 99
92 103 92 5 0 9 -7 9 -15z"/>
<path d="M1384 2496 c-51 -23 -94 -66 -94 -93 0 -7 14 2 31 22 73 83 192 87
278 11 l24 -21 -17 26 c-21 33 -104 79 -142 79 -16 0 -52 -11 -80 -24z"/>
<path d="M1443 2460 c-43 -10 -96 -51 -123 -96 -18 -28 -21 -44 -16 -80 8 -65
21 -83 79 -110 62 -29 89 -30 142 -5 80 37 124 116 109 196 -6 35 -49 73 -107
94 -32 12 -38 12 -84 1z m122 -71 c53 -47 42 -109 -28 -163 -57 -44 -160 -27
-186 30 -21 46 -13 74 33 120 40 40 47 44 94 44 43 0 57 -5 87 -31z"/>
<path d="M2333 1519 c-64 -32 -105 -89 -109 -152 l-3 -52 9 49 c10 54 50 104
106 131 62 29 156 14 198 -34 l20 -22 -45 20 c-60 28 -105 26 -168 -6 -68 -33
-97 -88 -86 -162 9 -58 25 -76 87 -97 130 -43 248 37 248 167 0 60 -45 124
-110 157 -55 28 -93 28 -147 1z m186 -105 c24 -20 31 -34 31 -61 0 -111 -147
-187 -220 -114 -39 39 -46 72 -25 127 21 55 52 73 127 74 47 0 62 -5 87 -26z"/>
</g>
</svg>
